<svg width="64" height="61" viewBox="0 0 64 61" fill="none" xmlns="http://www.w3.org/2000/svg">
<path d="M56.1653 22.9152C55.8768 22.1458 55.4921 21.5687 54.8189 20.9917L15.1953 43.6887L17.1188 46.1892L56.1653 22.9152Z" fill="#FFDB21"/>
<path d="M60 37L20.485 61.0001L16.7343 46.0932L57 24L61 34C61.5 35.5 60.7694 36.423 60 37Z" fill="#FFBF01"/>
<path d="M32 54L20.5 44C32.5 37.5 57 24 57 24C57 24 59.5 30 61 34C61.3551 35.3412 61 36.5 60 37L32 54Z" fill="#D38C00"/>
<path d="M54.819 20.9916L15.1954 43.6886L5.77039 37.9182L45.0093 15.2212L54.819 20.9916Z" fill="#FFBF01"/>
<path d="M22.0329 58.8966C20.6544 54.6329 17.8975 46.0478 17.8975 45.817L15.974 43.3164L6.3566 37.7384C5.58719 37.3536 5.01015 37.546 4.62547 38.0269L0.201479 46.2978C-0.375583 47.6443 0.393827 48.7983 1.16322 49.3754L20.1095 60.5315C21.2635 61.2048 22.4993 60.3392 22.0329 58.8966Z" fill="#FFDB21"/>
<path d="M43.9515 15.0711C44.24 14.9328 44.7161 15.0034 45.0094 15.2213L5.77045 37.9183L4.80872 37.8222L43.9515 15.0711Z" fill="#FFDB21"/>
<path d="M25.967 37.5336L44.8171 26.7621L25.7747 26.3774L7.11694 37.1489L25.967 37.5336Z" fill="#FFE669"/>
<path d="M48.8564 24.454L52.5635 22.3381H32.7954L29.4293 24.2616L48.8564 24.454Z" fill="#FFE669"/>
<path d="M59.1653 7.91517C58.8768 7.14578 58.4921 6.56874 57.8189 5.9917L18.1953 28.6887L20.1188 31.1892L59.1653 7.91517Z" fill="#FFDB21"/>
<path d="M62.4354 22.3414L23.485 46.0001L19.7343 31.0932L59.1655 7.91528L63.3972 19.7447C63.4933 20.9949 63.2048 21.7643 62.4354 22.3414Z" fill="#FFBF01"/>
<path d="M57.819 5.99162L18.1954 28.6886L8.77039 22.9182L48.0093 0.221191L57.819 5.99162Z" fill="#FFBF01"/>
<path d="M25.0329 43.8966C23.6544 39.6329 20.8975 31.0478 20.8975 30.817L18.974 28.3164L9.3566 22.7384C8.58719 22.3536 8.01015 22.546 7.62547 23.0269L3.20148 31.2978C2.62442 32.6443 3.39383 33.7983 4.16322 34.3754L23.1095 45.5315C24.2635 46.2048 25.4993 45.3392 25.0329 43.8966Z" fill="#FFDB21"/>
<path d="M46.9515 0.0710729C47.24 -0.0671987 47.7161 0.00336556 48.0094 0.221325L8.77045 22.9183L7.80872 22.8222L46.9515 0.0710729Z" fill="#FFDB21"/>
<path d="M28.967 22.5336L47.8171 11.7621L28.7747 11.3774L10.1169 22.1489L28.967 22.5336Z" fill="#FFE669"/>
<path d="M51.8564 9.45396L55.5635 7.33813H35.7954L32.4293 9.26161L51.8564 9.45396Z" fill="#FFE669"/>
<path d="M16.528 28.4052C18.4046 27.6244 19.2633 26.8348 20.032 24.9072C20.0934 24.7531 20.2416 24.6494 20.4074 24.6494C20.5733 24.6494 20.7215 24.7531 20.7829 24.9072C21.5516 26.8348 22.4103 27.6244 24.2869 28.4052C24.4405 28.4691 24.5429 28.6184 24.5429 28.7849C24.5429 28.9513 24.4405 29.1007 24.2869 29.1646C22.4103 29.9453 21.5516 30.735 20.7829 32.6626C20.7215 32.8166 20.5733 32.9204 20.4074 32.9204C20.2416 32.9204 20.0934 32.8166 20.032 32.6626C19.2633 30.735 18.4046 29.9453 16.528 29.1646C16.3744 29.1007 16.272 28.9513 16.272 28.7849C16.272 28.6184 16.3744 28.4691 16.528 28.4052Z" fill="white"/>
</svg>
