<svg width="298" height="252" viewBox="0 0 298 252" fill="none" xmlns="http://www.w3.org/2000/svg">
<circle cx="125.841" cy="126.159" r="125.841" fill="#032A41"/>
<path d="M279.399 34.9637C278.137 31.596 276.453 29.0702 273.506 26.5444L100.069 125.892L108.489 136.837L279.399 34.9637Z" fill="#FFDB21"/>
<path d="M293.712 98.1068L123.222 201.663L106.805 136.414L279.4 34.9624L297.922 86.7408C298.343 92.2133 297.08 95.581 293.712 98.1068Z" fill="#FFBF01"/>
<path d="M273.506 26.5436L100.069 125.891L58.8151 100.633L230.568 1.28589L273.506 26.5436Z" fill="#FFBF01"/>
<path d="M129.998 192.458C123.964 173.795 111.897 136.217 111.897 135.207L103.477 124.262L61.3812 99.846C58.0134 98.1621 55.4877 99.004 53.8039 101.109L34.4396 137.312C31.9138 143.205 35.2816 148.257 38.6493 150.782L121.579 199.614C126.63 202.561 132.04 198.772 129.998 192.458Z" fill="#FFDB21"/>
<path d="M225.938 0.628232C227.201 0.0230032 229.285 0.33187 230.568 1.2859L58.8157 100.633L54.6061 100.212L225.938 0.628232Z" fill="#FFDB21"/>
<path d="M147.218 98.9488L229.727 51.801L146.376 50.1172L64.7094 97.265L147.218 98.9488Z" fill="#FFE669"/>
<path d="M247.407 41.6982L263.633 32.437H177.106L162.373 40.8563L247.407 41.6982Z" fill="#FFE669"/>
<path d="M92.7715 124.649C100.985 121.232 104.744 117.776 108.109 109.339C108.378 108.664 109.026 108.21 109.752 108.21C110.478 108.21 111.127 108.664 111.396 109.339C114.76 117.776 118.519 121.232 126.733 124.649C127.405 124.929 127.854 125.583 127.854 126.312C127.854 127.04 127.405 127.694 126.733 127.974C118.519 131.391 114.76 134.847 111.396 143.285C111.127 143.959 110.478 144.413 109.752 144.413C109.026 144.413 108.378 143.959 108.109 143.285C104.744 134.847 100.985 131.391 92.7715 127.974C92.0989 127.694 91.6508 127.04 91.6508 126.312C91.6508 125.583 92.0989 124.929 92.7715 124.649Z" fill="white"/>
</svg>
